<svg width="525" height="362" viewBox="0 0 525 362" fill="none" xmlns="http://www.w3.org/2000/svg">
<path d="M33.3 53.5V67.7H56.2V80.9H33.3V96.3H59.2V110H16.2V39.8H59.2V53.5H33.3ZM113.302 110L99.0016 88.5L86.4016 110H67.0016L89.5016 74.3L66.5016 39.8H86.4016L100.502 61L112.902 39.8H132.302L110.002 75.2L133.202 110H113.302ZM195.286 62.4C195.286 66.4667 194.353 70.2 192.486 73.6C190.619 76.9333 187.753 79.6333 183.886 81.7C180.019 83.7667 175.219 84.8 169.486 84.8H158.886V110H141.786V39.8H169.486C175.086 39.8 179.819 40.7667 183.686 42.7C187.553 44.6333 190.453 47.3 192.386 50.7C194.319 54.1 195.286 58 195.286 62.4ZM168.186 71.2C171.453 71.2 173.886 70.4333 175.486 68.9C177.086 67.3667 177.886 65.2 177.886 62.4C177.886 59.6 177.086 57.4333 175.486 55.9C173.886 54.3667 171.453 53.6 168.186 53.6H158.886V71.2H168.186ZM221.288 53.5V67.7H244.188V80.9H221.288V96.3H247.188V110H204.188V39.8H247.188V53.5H221.288ZM321.09 110H303.99L275.39 66.7V110H258.29V39.8H275.39L303.99 83.3V39.8H321.09V110ZM358.885 110.7C353.752 110.7 349.152 109.867 345.085 108.2C341.018 106.533 337.752 104.067 335.285 100.8C332.885 97.5333 331.618 93.6 331.485 89H349.685C349.952 91.6 350.852 93.6 352.385 95C353.918 96.3333 355.918 97 358.385 97C360.918 97 362.918 96.4333 364.385 95.3C365.852 94.1 366.585 92.4667 366.585 90.4C366.585 88.6667 365.985 87.2333 364.785 86.1C363.652 84.9667 362.218 84.0333 360.485 83.3C358.818 82.5667 356.418 81.7333 353.285 80.8C348.752 79.4 345.052 78 342.185 76.6C339.318 75.2 336.852 73.1333 334.785 70.4C332.718 67.6667 331.685 64.1 331.685 59.7C331.685 53.1667 334.052 48.0667 338.785 44.4C343.518 40.6667 349.685 38.8 357.285 38.8C365.018 38.8 371.252 40.6667 375.985 44.4C380.718 48.0667 383.252 53.2 383.585 59.8H365.085C364.952 57.5333 364.118 55.7667 362.585 54.5C361.052 53.1667 359.085 52.5 356.685 52.5C354.618 52.5 352.952 53.0667 351.685 54.2C350.418 55.2667 349.785 56.8333 349.785 58.9C349.785 61.1667 350.852 62.9333 352.985 64.2C355.118 65.4667 358.452 66.8333 362.985 68.3C367.518 69.8333 371.185 71.3 373.985 72.7C376.852 74.1 379.318 76.1333 381.385 78.8C383.452 81.4667 384.485 84.9 384.485 89.1C384.485 93.1 383.452 96.7333 381.385 100C379.385 103.267 376.452 105.867 372.585 107.8C368.718 109.733 364.152 110.7 358.885 110.7ZM412.109 53.5V67.7H435.009V80.9H412.109V96.3H438.009V110H395.009V39.8H438.009V53.5H412.109Z" fill="#2E2E2E"/>
<path d="M143.6 140.3V147.7H124.6V210H115.5V147.7H96.4V140.3H143.6ZM191.502 210L174.902 181.5H163.902V210H154.802V140.3H177.302C182.568 140.3 187.002 141.2 190.602 143C194.268 144.8 197.002 147.233 198.802 150.3C200.602 153.367 201.502 156.867 201.502 160.8C201.502 165.6 200.102 169.833 197.302 173.5C194.568 177.167 190.435 179.6 184.902 180.8L202.402 210H191.502ZM163.902 174.2H177.302C182.235 174.2 185.935 173 188.402 170.6C190.868 168.133 192.102 164.867 192.102 160.8C192.102 156.667 190.868 153.467 188.402 151.2C186.002 148.933 182.302 147.8 177.302 147.8H163.902V174.2ZM256.841 194.5H226.441L220.841 210H211.241L236.441 140.7H246.941L272.041 210H262.441L256.841 194.5ZM254.241 187.1L241.641 151.9L229.041 187.1H254.241ZM279.624 175.1C279.624 168.3 281.158 162.2 284.224 156.8C287.291 151.333 291.458 147.067 296.724 144C302.058 140.933 307.958 139.4 314.424 139.4C322.024 139.4 328.658 141.233 334.324 144.9C339.991 148.567 344.124 153.767 346.724 160.5H335.824C333.891 156.3 331.091 153.067 327.424 150.8C323.824 148.533 319.491 147.4 314.424 147.4C309.558 147.4 305.191 148.533 301.324 150.8C297.458 153.067 294.424 156.3 292.224 160.5C290.024 164.633 288.924 169.5 288.924 175.1C288.924 180.633 290.024 185.5 292.224 189.7C294.424 193.833 297.458 197.033 301.324 199.3C305.191 201.567 309.558 202.7 314.424 202.7C319.491 202.7 323.824 201.6 327.424 199.4C331.091 197.133 333.891 193.9 335.824 189.7H346.724C344.124 196.367 339.991 201.533 334.324 205.2C328.658 208.8 322.024 210.6 314.424 210.6C307.958 210.6 302.058 209.1 296.724 206.1C291.458 203.033 287.291 198.8 284.224 193.4C281.158 188 279.624 181.9 279.624 175.1ZM398.07 210L369.37 178.2V210H360.27V140.3H369.37V172.6L398.17 140.3H409.67L378.07 175.2L409.97 210H398.07ZM429.234 147.7V171H454.634V178.5H429.234V202.5H457.634V210H420.134V140.2H457.634V147.7H429.234ZM508.103 210L491.503 181.5H480.503V210H471.403V140.3H493.903C499.17 140.3 503.603 141.2 507.203 143C510.87 144.8 513.603 147.233 515.403 150.3C517.203 153.367 518.103 156.867 518.103 160.8C518.103 165.6 516.703 169.833 513.903 173.5C511.17 177.167 507.036 179.6 501.503 180.8L519.003 210H508.103ZM480.503 174.2H493.903C498.836 174.2 502.536 173 505.003 170.6C507.47 168.133 508.703 164.867 508.703 160.8C508.703 156.667 507.47 153.467 505.003 151.2C502.603 148.933 498.903 147.8 493.903 147.8H480.503V174.2Z" fill="#2E2E2E"/>
<path d="M67.2 138H7.46668C5.4864 138 3.58722 138.787 2.18695 140.187C0.786677 141.587 1.19564e-05 143.486 1.19564e-05 145.467V205.2C-0.00263371 206.679 0.433844 208.125 1.25411 209.355C2.07438 210.586 3.24149 211.545 4.60749 212.111C5.9735 212.677 7.47687 212.825 8.92702 212.536C10.3772 212.247 11.7088 211.533 12.7531 210.486L37.3333 185.891L211.247 359.82L221.82 349.247L47.8912 175.333L72.4864 150.753C73.5333 149.709 74.2466 148.377 74.5358 146.927C74.825 145.477 74.6772 143.973 74.1109 142.607C73.5447 141.241 72.5856 140.074 71.3553 139.254C70.1249 138.434 68.6787 137.997 67.2 138Z" fill="#2E2E2E"/>
</svg>
